# xmcd
#
# Track frame offsets:
#	150
#	9500
#	20425
#	35713
#	47875
#	60313
#	77550
#	88663
#	99150
#	115613
#	126238
#	137575
#	148150
#	158713
#	168663
#	181650
#	197838
#	208650
#	220663
#	232663
#	245500
#	258613
#	273063
#	282813
#	294888
#
# Disc length: 4066
#
# Revision: 4
# Processed by: cddbd v1.5.1PL0 Copyright (c) Steve Scherf et al.
# Submitted via: EasyCDDAExtractor 6.5.2.1
# Normalized: r3:DSETVAR1
#
DISCID=540fe019
DTITLE=Various Artist - Oh Lonesome Me - 25 Country Classics
DYEAR=1994
DGENRE=Country
TTITLE0=Jim Reeves - Billy Bayou
TTITLE1=Patsy Cline - Honky Tonk Merry Go Round
TTITLE2=Jerry Lee Lewis - Cold Cold Heart
TTITLE3=Billie Jo Spears - My Own Kind
TTITLE4=Ernest Tubb - Thanks A Lot
TTITLE5=Lynn Anderson - Blue Bayou
TTITLE6=George Jones - Once A Day
TTITLE7=Jan Howard - I Wish I Could Fall In Love Again
TTITLE8=Johnny Preston - Madre De Dios
TTITLE9=Wanda Jackson - Its Only Make Believe
TTITLE10=Don Williams - Spend Some Time With Me
TTITLE11=Anne Murray - Some Birds
TTITLE12=Don Gibson - Lonesome Number One
TTITLE13=Barbara Mandrell - Release Me
TTITLE14=Jack Greene - Beautiful lady
TTITLE15=Jeannie C Riley - The Cotton Patch
TTITLE16=Johnny Paycheck - Jukebox Charlie
TTITLE17=Patsy Cline - Today Tomorrow and Forever
TTITLE18=Don Gibson - Oh Lonesome Me
TTITLE19=Don Williams - Coming Apart
TTITLE20=Faron Young - Season Of My Heart
TTITLE21=Jerry Lee Lewis - Bottles and Barstools
TTITLE22=George Jones - Lonely Street
TTITLE23=Jim Reeves - Mexican Joe
TTITLE24=Boxcar Willie - T For Texas
EXTD=
EXTT0=
EXTT1=
EXTT2=
EXTT3=
EXTT4=
EXTT5=
EXTT6=
EXTT7=
EXTT8=
EXTT9=
EXTT10=
EXTT11=
EXTT12=
EXTT13=
EXTT14=
EXTT15=
EXTT16=
EXTT17=
EXTT18=
EXTT19=
EXTT20=
EXTT21=
EXTT22=
EXTT23=
EXTT24=
PLAYORDER=
